<mxfile host="Electron" agent="Mozilla/5.0 (Windows NT 10.0; Win64; x64) AppleWebKit/537.36 (KHTML, like Gecko) draw.io/24.7.8 Chrome/128.0.6613.36 Electron/32.0.1 Safari/537.36" version="24.7.8">
  <diagram name="PÃ¡gina-1" id="K5WQDo86sfcIV-j8yQaw">
    <mxGraphModel dx="125" dy="534" grid="1" gridSize="10" guides="1" tooltips="1" connect="1" arrows="1" fold="1" page="0" pageScale="1" pageWidth="850" pageHeight="600" math="0" shadow="0">
      <root>
        <mxCell id="0" />
        <mxCell id="1" parent="0" />
        <mxCell id="BCOhU2G1JXM69rmLW3HZ-59" value="" style="edgeStyle=orthogonalEdgeStyle;rounded=0;hachureGap=4;orthogonalLoop=1;jettySize=auto;html=1;fontFamily=Architects Daughter;fontSource=https%3A%2F%2Ffonts.googleapis.com%2Fcss%3Ffamily%3DArchitects%2BDaughter;entryX=0.5;entryY=0;entryDx=0;entryDy=0;" edge="1" parent="1" source="BCOhU2G1JXM69rmLW3HZ-101" target="BCOhU2G1JXM69rmLW3HZ-5">
          <mxGeometry relative="1" as="geometry">
            <mxPoint x="740.32" y="460" as="sourcePoint" />
            <mxPoint x="500" y="530" as="targetPoint" />
            <Array as="points">
              <mxPoint x="500" y="460" />
            </Array>
          </mxGeometry>
        </mxCell>
        <mxCell id="BCOhU2G1JXM69rmLW3HZ-60" value="&lt;font style=&quot;font-size: 8px;&quot;&gt;devuelve el resultado de la busqueda segun los filtros&lt;/font&gt;" style="edgeLabel;html=1;align=left;verticalAlign=middle;resizable=0;points=[];sketch=1;hachureGap=4;jiggle=2;curveFitting=1;fontFamily=Architects Daughter;fontSource=https%3A%2F%2Ffonts.googleapis.com%2Fcss%3Ffamily%3DArchitects%2BDaughter;fontSize=8;" vertex="1" connectable="0" parent="BCOhU2G1JXM69rmLW3HZ-59">
          <mxGeometry x="0.1622" y="-1" relative="1" as="geometry">
            <mxPoint x="-56" y="1" as="offset" />
          </mxGeometry>
        </mxCell>
        <mxCell id="BCOhU2G1JXM69rmLW3HZ-32" value="" style="edgeStyle=orthogonalEdgeStyle;rounded=0;hachureGap=4;orthogonalLoop=1;jettySize=auto;html=1;fontFamily=Architects Daughter;fontSource=https%3A%2F%2Ffonts.googleapis.com%2Fcss%3Ffamily%3DArchitects%2BDaughter;entryX=0.099;entryY=0.188;entryDx=0;entryDy=0;entryPerimeter=0;" edge="1" parent="1">
          <mxGeometry relative="1" as="geometry">
            <mxPoint x="550.02" y="580" as="sourcePoint" />
            <mxPoint x="705.8600000000001" y="615.0799999999999" as="targetPoint" />
            <Array as="points">
              <mxPoint x="540.02" y="580" />
              <mxPoint x="540.02" y="615" />
            </Array>
          </mxGeometry>
        </mxCell>
        <mxCell id="BCOhU2G1JXM69rmLW3HZ-37" value="&lt;div style=&quot;&quot;&gt;&lt;font style=&quot;font-size: 8px;&quot;&gt;registro y logeo&lt;/font&gt;&lt;/div&gt;" style="edgeLabel;html=1;align=left;verticalAlign=middle;resizable=0;points=[];sketch=1;hachureGap=4;jiggle=2;curveFitting=1;fontFamily=Architects Daughter;fontSource=https%3A%2F%2Ffonts.googleapis.com%2Fcss%3Ffamily%3DArchitects%2BDaughter;" vertex="1" connectable="0" parent="BCOhU2G1JXM69rmLW3HZ-32">
          <mxGeometry x="0.0794" y="-1" relative="1" as="geometry">
            <mxPoint x="-59" y="-1" as="offset" />
          </mxGeometry>
        </mxCell>
        <mxCell id="BCOhU2G1JXM69rmLW3HZ-5" value="&lt;b&gt;USUARIOS&lt;/b&gt;" style="rounded=1;whiteSpace=wrap;html=1;" vertex="1" parent="1">
          <mxGeometry x="440" y="540" width="120" height="50" as="geometry" />
        </mxCell>
        <mxCell id="BCOhU2G1JXM69rmLW3HZ-6" value="&lt;b&gt;EMPRESAS&lt;/b&gt;" style="rounded=1;whiteSpace=wrap;html=1;" vertex="1" parent="1">
          <mxGeometry x="500" y="840" width="120" height="60" as="geometry" />
        </mxCell>
        <mxCell id="BCOhU2G1JXM69rmLW3HZ-7" value="&lt;b&gt;PLATAFORMAS DE REDES(APIs)&lt;/b&gt;" style="rounded=1;whiteSpace=wrap;html=1;" vertex="1" parent="1">
          <mxGeometry x="1090" y="300" width="120" height="60" as="geometry" />
        </mxCell>
        <mxCell id="BCOhU2G1JXM69rmLW3HZ-8" value="&lt;b&gt;MENSAJES&lt;/b&gt;" style="rounded=1;whiteSpace=wrap;html=1;" vertex="1" parent="1">
          <mxGeometry x="1165" y="530" width="120" height="60" as="geometry" />
        </mxCell>
        <mxCell id="BCOhU2G1JXM69rmLW3HZ-9" value="&lt;b&gt;MOTOR DE BUSQUEDA&lt;/b&gt;" style="rounded=1;whiteSpace=wrap;html=1;" vertex="1" parent="1">
          <mxGeometry x="1180" y="770" width="120" height="60" as="geometry" />
        </mxCell>
        <mxCell id="BCOhU2G1JXM69rmLW3HZ-38" value="" style="edgeStyle=orthogonalEdgeStyle;rounded=0;hachureGap=4;orthogonalLoop=1;jettySize=auto;html=1;fontFamily=Architects Daughter;fontSource=https%3A%2F%2Ffonts.googleapis.com%2Fcss%3Ffamily%3DArchitects%2BDaughter;entryX=0;entryY=0.412;entryDx=0;entryDy=0;entryPerimeter=0;" edge="1" parent="1" target="BCOhU2G1JXM69rmLW3HZ-101">
          <mxGeometry relative="1" as="geometry">
            <mxPoint x="520" y="590" as="sourcePoint" />
            <mxPoint x="681.92" y="630" as="targetPoint" />
            <Array as="points">
              <mxPoint x="520" y="629" />
              <mxPoint x="682" y="629" />
              <mxPoint x="682" y="630" />
            </Array>
          </mxGeometry>
        </mxCell>
        <mxCell id="BCOhU2G1JXM69rmLW3HZ-40" value="&lt;font style=&quot;font-size: 8px;&quot;&gt;creacion/edicion de perfil&lt;/font&gt;" style="edgeLabel;html=1;align=left;verticalAlign=middle;resizable=0;points=[];sketch=1;hachureGap=4;jiggle=2;curveFitting=1;fontFamily=Architects Daughter;fontSource=https%3A%2F%2Ffonts.googleapis.com%2Fcss%3Ffamily%3DArchitects%2BDaughter;" vertex="1" connectable="0" parent="BCOhU2G1JXM69rmLW3HZ-38">
          <mxGeometry x="0.1592" y="-1" relative="1" as="geometry">
            <mxPoint x="-68" as="offset" />
          </mxGeometry>
        </mxCell>
        <mxCell id="BCOhU2G1JXM69rmLW3HZ-41" value="" style="edgeStyle=orthogonalEdgeStyle;rounded=0;hachureGap=4;orthogonalLoop=1;jettySize=auto;html=1;fontFamily=Architects Daughter;fontSource=https%3A%2F%2Ffonts.googleapis.com%2Fcss%3Ffamily%3DArchitects%2BDaughter;exitX=0.131;exitY=0.989;exitDx=0;exitDy=0;exitPerimeter=0;entryX=-0.005;entryY=0.443;entryDx=0;entryDy=0;entryPerimeter=0;" edge="1" parent="1" target="BCOhU2G1JXM69rmLW3HZ-101">
          <mxGeometry relative="1" as="geometry">
            <mxPoint x="500" y="590" as="sourcePoint" />
            <mxPoint x="690" y="646" as="targetPoint" />
            <Array as="points">
              <mxPoint x="504" y="590" />
              <mxPoint x="504" y="646" />
            </Array>
          </mxGeometry>
        </mxCell>
        <mxCell id="BCOhU2G1JXM69rmLW3HZ-44" value="&lt;font style=&quot;font-size: 8px;&quot;&gt;solicitud de conexion&lt;/font&gt;" style="edgeLabel;html=1;align=left;verticalAlign=middle;resizable=0;points=[];sketch=1;hachureGap=4;jiggle=2;curveFitting=1;fontFamily=Architects Daughter;fontSource=https%3A%2F%2Ffonts.googleapis.com%2Fcss%3Ffamily%3DArchitects%2BDaughter;" vertex="1" connectable="0" parent="BCOhU2G1JXM69rmLW3HZ-41">
          <mxGeometry x="0.2489" y="-1" relative="1" as="geometry">
            <mxPoint x="-68" as="offset" />
          </mxGeometry>
        </mxCell>
        <mxCell id="BCOhU2G1JXM69rmLW3HZ-45" value="" style="edgeStyle=orthogonalEdgeStyle;rounded=0;hachureGap=4;orthogonalLoop=1;jettySize=auto;html=1;fontFamily=Architects Daughter;fontSource=https%3A%2F%2Ffonts.googleapis.com%2Fcss%3Ffamily%3DArchitects%2BDaughter;entryX=0;entryY=0.48;entryDx=0;entryDy=0;entryPerimeter=0;" edge="1" parent="1" target="BCOhU2G1JXM69rmLW3HZ-101">
          <mxGeometry relative="1" as="geometry">
            <mxPoint x="490" y="590" as="sourcePoint" />
            <mxPoint x="655.8489538312629" y="665.0270270270269" as="targetPoint" />
            <Array as="points">
              <mxPoint x="490" y="665" />
            </Array>
          </mxGeometry>
        </mxCell>
        <mxCell id="BCOhU2G1JXM69rmLW3HZ-47" value="&lt;font style=&quot;font-size: 8px;&quot;&gt;gestion de contactos&lt;/font&gt;" style="edgeLabel;html=1;align=left;verticalAlign=middle;resizable=0;points=[];sketch=1;hachureGap=4;jiggle=2;curveFitting=1;fontFamily=Architects Daughter;fontSource=https%3A%2F%2Ffonts.googleapis.com%2Fcss%3Ffamily%3DArchitects%2BDaughter;" vertex="1" connectable="0" parent="BCOhU2G1JXM69rmLW3HZ-45">
          <mxGeometry x="0.2989" y="1" relative="1" as="geometry">
            <mxPoint x="-72" as="offset" />
          </mxGeometry>
        </mxCell>
        <mxCell id="BCOhU2G1JXM69rmLW3HZ-48" value="" style="edgeStyle=orthogonalEdgeStyle;rounded=0;hachureGap=4;orthogonalLoop=1;jettySize=auto;html=1;fontFamily=Architects Daughter;fontSource=https%3A%2F%2Ffonts.googleapis.com%2Fcss%3Ffamily%3DArchitects%2BDaughter;entryX=0;entryY=0.51;entryDx=0;entryDy=0;entryPerimeter=0;" edge="1" parent="1" target="BCOhU2G1JXM69rmLW3HZ-101">
          <mxGeometry relative="1" as="geometry">
            <mxPoint x="490" y="590" as="sourcePoint" />
            <mxPoint x="657.571668556359" y="680.0270270270269" as="targetPoint" />
            <Array as="points">
              <mxPoint x="480" y="590" />
              <mxPoint x="480" y="680" />
            </Array>
          </mxGeometry>
        </mxCell>
        <mxCell id="BCOhU2G1JXM69rmLW3HZ-49" value="&lt;font style=&quot;font-size: 8px;&quot;&gt;hacer publicaciones&lt;/font&gt;" style="edgeLabel;html=1;align=left;verticalAlign=middle;resizable=0;points=[];sketch=1;hachureGap=4;jiggle=2;curveFitting=1;fontFamily=Architects Daughter;fontSource=https%3A%2F%2Ffonts.googleapis.com%2Fcss%3Ffamily%3DArchitects%2BDaughter;" vertex="1" connectable="0" parent="BCOhU2G1JXM69rmLW3HZ-48">
          <mxGeometry x="0.3783" relative="1" as="geometry">
            <mxPoint x="-81" as="offset" />
          </mxGeometry>
        </mxCell>
        <mxCell id="BCOhU2G1JXM69rmLW3HZ-50" value="" style="edgeStyle=orthogonalEdgeStyle;rounded=0;hachureGap=4;orthogonalLoop=1;jettySize=auto;html=1;fontFamily=Architects Daughter;fontSource=https%3A%2F%2Ffonts.googleapis.com%2Fcss%3Ffamily%3DArchitects%2BDaughter;entryX=0;entryY=0.539;entryDx=0;entryDy=0;entryPerimeter=0;" edge="1" parent="1" target="BCOhU2G1JXM69rmLW3HZ-101">
          <mxGeometry relative="1" as="geometry">
            <mxPoint x="470" y="590" as="sourcePoint" />
            <mxPoint x="663.3631047345558" y="694.9999999999998" as="targetPoint" />
            <Array as="points">
              <mxPoint x="470" y="695" />
            </Array>
          </mxGeometry>
        </mxCell>
        <mxCell id="BCOhU2G1JXM69rmLW3HZ-51" value="&lt;font style=&quot;font-size: 8px;&quot;&gt;busqueda de perfiles y ofertas&lt;/font&gt;" style="edgeLabel;html=1;align=left;verticalAlign=middle;resizable=0;points=[];sketch=1;hachureGap=4;jiggle=2;curveFitting=1;fontFamily=Architects Daughter;fontSource=https%3A%2F%2Ffonts.googleapis.com%2Fcss%3Ffamily%3DArchitects%2BDaughter;" vertex="1" connectable="0" parent="BCOhU2G1JXM69rmLW3HZ-50">
          <mxGeometry x="0.3968" relative="1" as="geometry">
            <mxPoint x="-93" as="offset" />
          </mxGeometry>
        </mxCell>
        <mxCell id="BCOhU2G1JXM69rmLW3HZ-61" value="" style="edgeStyle=orthogonalEdgeStyle;rounded=0;hachureGap=4;orthogonalLoop=1;jettySize=auto;html=1;fontFamily=Architects Daughter;fontSource=https%3A%2F%2Ffonts.googleapis.com%2Fcss%3Ffamily%3DArchitects%2BDaughter;endArrow=classic;endFill=1;entryX=0.837;entryY=-0.037;entryDx=0;entryDy=0;entryPerimeter=0;exitX=0.144;exitY=0.16;exitDx=0;exitDy=0;exitPerimeter=0;" edge="1" parent="1" source="BCOhU2G1JXM69rmLW3HZ-101" target="BCOhU2G1JXM69rmLW3HZ-5">
          <mxGeometry relative="1" as="geometry">
            <mxPoint x="730" y="500" as="sourcePoint" />
            <mxPoint x="540" y="530" as="targetPoint" />
            <Array as="points">
              <mxPoint x="540" y="502" />
              <mxPoint x="540" y="538" />
            </Array>
          </mxGeometry>
        </mxCell>
        <mxCell id="BCOhU2G1JXM69rmLW3HZ-62" value="notificacion de mensajes" style="edgeLabel;html=1;align=left;verticalAlign=middle;resizable=0;points=[];sketch=1;hachureGap=4;jiggle=2;curveFitting=1;fontFamily=Architects Daughter;fontSource=https%3A%2F%2Ffonts.googleapis.com%2Fcss%3Ffamily%3DArchitects%2BDaughter;fontSize=8;" vertex="1" connectable="0" parent="BCOhU2G1JXM69rmLW3HZ-61">
          <mxGeometry x="0.1622" y="-1" relative="1" as="geometry">
            <mxPoint x="-38" y="1" as="offset" />
          </mxGeometry>
        </mxCell>
        <mxCell id="BCOhU2G1JXM69rmLW3HZ-52" value="" style="edgeStyle=orthogonalEdgeStyle;rounded=0;hachureGap=4;orthogonalLoop=1;jettySize=auto;html=1;fontFamily=Architects Daughter;fontSource=https%3A%2F%2Ffonts.googleapis.com%2Fcss%3Ffamily%3DArchitects%2BDaughter;entryX=0;entryY=0.578;entryDx=0;entryDy=0;entryPerimeter=0;exitX=0.166;exitY=0.984;exitDx=0;exitDy=0;exitPerimeter=0;" edge="1" parent="1" source="BCOhU2G1JXM69rmLW3HZ-5" target="BCOhU2G1JXM69rmLW3HZ-101">
          <mxGeometry relative="1" as="geometry">
            <mxPoint x="460" y="680" as="sourcePoint" />
            <mxPoint x="690" y="715" as="targetPoint" />
            <Array as="points">
              <mxPoint x="460" y="715" />
            </Array>
          </mxGeometry>
        </mxCell>
        <mxCell id="BCOhU2G1JXM69rmLW3HZ-55" value="postularse a ofertas" style="edgeLabel;html=1;align=left;verticalAlign=middle;resizable=0;points=[];sketch=1;hachureGap=4;jiggle=2;curveFitting=1;fontFamily=Architects Daughter;fontSource=https%3A%2F%2Ffonts.googleapis.com%2Fcss%3Ffamily%3DArchitects%2BDaughter;fontSize=8;" vertex="1" connectable="0" parent="BCOhU2G1JXM69rmLW3HZ-52">
          <mxGeometry x="0.1622" y="-1" relative="1" as="geometry">
            <mxPoint x="-74" as="offset" />
          </mxGeometry>
        </mxCell>
        <mxCell id="BCOhU2G1JXM69rmLW3HZ-65" value="" style="edgeStyle=orthogonalEdgeStyle;rounded=0;hachureGap=4;orthogonalLoop=1;jettySize=auto;html=1;fontFamily=Architects Daughter;fontSource=https%3A%2F%2Ffonts.googleapis.com%2Fcss%3Ffamily%3DArchitects%2BDaughter;endArrow=classic;endFill=1;entryX=0.667;entryY=0;entryDx=0;entryDy=0;entryPerimeter=0;exitX=0.179;exitY=0.115;exitDx=0;exitDy=0;exitPerimeter=0;" edge="1" parent="1" source="BCOhU2G1JXM69rmLW3HZ-101" target="BCOhU2G1JXM69rmLW3HZ-5">
          <mxGeometry relative="1" as="geometry">
            <mxPoint x="700" y="480" as="sourcePoint" />
            <mxPoint x="520" y="510" as="targetPoint" />
            <Array as="points">
              <mxPoint x="630" y="479" />
              <mxPoint x="630" y="480" />
              <mxPoint x="520" y="480" />
            </Array>
          </mxGeometry>
        </mxCell>
        <mxCell id="BCOhU2G1JXM69rmLW3HZ-66" value="confirma postulacion" style="edgeLabel;html=1;align=left;verticalAlign=middle;resizable=0;points=[];sketch=1;hachureGap=4;jiggle=2;curveFitting=1;fontFamily=Architects Daughter;fontSource=https%3A%2F%2Ffonts.googleapis.com%2Fcss%3Ffamily%3DArchitects%2BDaughter;fontSize=8;" vertex="1" connectable="0" parent="BCOhU2G1JXM69rmLW3HZ-65">
          <mxGeometry x="0.1622" y="-1" relative="1" as="geometry">
            <mxPoint x="-38" y="1" as="offset" />
          </mxGeometry>
        </mxCell>
        <mxCell id="BCOhU2G1JXM69rmLW3HZ-67" value="" style="edgeStyle=orthogonalEdgeStyle;rounded=0;hachureGap=4;orthogonalLoop=1;jettySize=auto;html=1;fontFamily=Architects Daughter;fontSource=https%3A%2F%2Ffonts.googleapis.com%2Fcss%3Ffamily%3DArchitects%2BDaughter;endArrow=classic;endFill=1;exitX=0.302;exitY=0.04;exitDx=0;exitDy=0;exitPerimeter=0;entryX=0.333;entryY=0;entryDx=0;entryDy=0;entryPerimeter=0;" edge="1" parent="1" source="BCOhU2G1JXM69rmLW3HZ-101" target="BCOhU2G1JXM69rmLW3HZ-5">
          <mxGeometry relative="1" as="geometry">
            <mxPoint x="660" y="440" as="sourcePoint" />
            <mxPoint x="480" y="530" as="targetPoint" />
            <Array as="points">
              <mxPoint x="480" y="440" />
            </Array>
          </mxGeometry>
        </mxCell>
        <mxCell id="BCOhU2G1JXM69rmLW3HZ-68" value="muestra publicaciones de otros users" style="edgeLabel;html=1;align=left;verticalAlign=middle;resizable=0;points=[];sketch=1;hachureGap=4;jiggle=2;curveFitting=1;fontFamily=Architects Daughter;fontSource=https%3A%2F%2Ffonts.googleapis.com%2Fcss%3Ffamily%3DArchitects%2BDaughter;fontSize=8;" vertex="1" connectable="0" parent="BCOhU2G1JXM69rmLW3HZ-67">
          <mxGeometry x="0.1622" y="-1" relative="1" as="geometry">
            <mxPoint x="-38" y="1" as="offset" />
          </mxGeometry>
        </mxCell>
        <mxCell id="BCOhU2G1JXM69rmLW3HZ-69" value="" style="edgeStyle=orthogonalEdgeStyle;rounded=0;hachureGap=4;orthogonalLoop=1;jettySize=auto;html=1;fontFamily=Architects Daughter;fontSource=https%3A%2F%2Ffonts.googleapis.com%2Fcss%3Ffamily%3DArchitects%2BDaughter;endArrow=classic;endFill=1;exitX=0.398;exitY=0.009;exitDx=0;exitDy=0;exitPerimeter=0;entryX=0.175;entryY=-0.058;entryDx=0;entryDy=0;entryPerimeter=0;" edge="1" parent="1" source="BCOhU2G1JXM69rmLW3HZ-101" target="BCOhU2G1JXM69rmLW3HZ-5">
          <mxGeometry relative="1" as="geometry">
            <mxPoint x="680" y="420" as="sourcePoint" />
            <mxPoint x="460" y="450" as="targetPoint" />
            <Array as="points">
              <mxPoint x="460" y="425" />
              <mxPoint x="460" y="450" />
              <mxPoint x="461" y="450" />
            </Array>
          </mxGeometry>
        </mxCell>
        <mxCell id="BCOhU2G1JXM69rmLW3HZ-70" value="notificacion de acectacion/rechazo de conexion" style="edgeLabel;html=1;align=left;verticalAlign=middle;resizable=0;points=[];sketch=1;hachureGap=4;jiggle=2;curveFitting=1;fontFamily=Architects Daughter;fontSource=https%3A%2F%2Ffonts.googleapis.com%2Fcss%3Ffamily%3DArchitects%2BDaughter;fontSize=8;" vertex="1" connectable="0" parent="BCOhU2G1JXM69rmLW3HZ-69">
          <mxGeometry x="0.1622" y="-1" relative="1" as="geometry">
            <mxPoint x="-71" y="1" as="offset" />
          </mxGeometry>
        </mxCell>
        <mxCell id="BCOhU2G1JXM69rmLW3HZ-71" value="" style="edgeStyle=orthogonalEdgeStyle;rounded=0;hachureGap=4;orthogonalLoop=1;jettySize=auto;html=1;fontFamily=Architects Daughter;fontSource=https%3A%2F%2Ffonts.googleapis.com%2Fcss%3Ffamily%3DArchitects%2BDaughter;endArrow=classic;endFill=1;entryX=0.083;entryY=0;entryDx=0;entryDy=0;entryPerimeter=0;exitX=0.441;exitY=0;exitDx=0;exitDy=0;exitPerimeter=0;" edge="1" parent="1" source="BCOhU2G1JXM69rmLW3HZ-101" target="BCOhU2G1JXM69rmLW3HZ-5">
          <mxGeometry relative="1" as="geometry">
            <mxPoint x="770" y="410" as="sourcePoint" />
            <mxPoint x="450" y="530" as="targetPoint" />
          </mxGeometry>
        </mxCell>
        <mxCell id="BCOhU2G1JXM69rmLW3HZ-72" value="verificacion/autenticacion" style="edgeLabel;html=1;align=left;verticalAlign=middle;resizable=0;points=[];sketch=1;hachureGap=4;jiggle=2;curveFitting=1;fontFamily=Architects Daughter;fontSource=https%3A%2F%2Ffonts.googleapis.com%2Fcss%3Ffamily%3DArchitects%2BDaughter;fontSize=8;" vertex="1" connectable="0" parent="BCOhU2G1JXM69rmLW3HZ-71">
          <mxGeometry x="0.1622" y="-1" relative="1" as="geometry">
            <mxPoint x="-75" as="offset" />
          </mxGeometry>
        </mxCell>
        <mxCell id="BCOhU2G1JXM69rmLW3HZ-74" value="" style="edgeStyle=orthogonalEdgeStyle;rounded=0;hachureGap=4;orthogonalLoop=1;jettySize=auto;html=1;fontFamily=Architects Daughter;fontSource=https%3A%2F%2Ffonts.googleapis.com%2Fcss%3Ffamily%3DArchitects%2BDaughter;endArrow=classic;endFill=1;exitX=0.059;exitY=0.747;exitDx=0;exitDy=0;exitPerimeter=0;" edge="1" parent="1" source="BCOhU2G1JXM69rmLW3HZ-101">
          <mxGeometry relative="1" as="geometry">
            <mxPoint x="700" y="800" as="sourcePoint" />
            <mxPoint x="520" y="840" as="targetPoint" />
            <Array as="points">
              <mxPoint x="520" y="801" />
            </Array>
          </mxGeometry>
        </mxCell>
        <mxCell id="BCOhU2G1JXM69rmLW3HZ-75" value="&lt;font style=&quot;font-size: 8px;&quot;&gt;notifica de postulaciones a&amp;nbsp; las ofertas&lt;/font&gt;" style="edgeLabel;html=1;align=center;verticalAlign=middle;resizable=0;points=[];sketch=1;hachureGap=4;jiggle=2;curveFitting=1;fontFamily=Architects Daughter;fontSource=https%3A%2F%2Ffonts.googleapis.com%2Fcss%3Ffamily%3DArchitects%2BDaughter;fontSize=8;" vertex="1" connectable="0" parent="BCOhU2G1JXM69rmLW3HZ-74">
          <mxGeometry x="0.1622" y="-1" relative="1" as="geometry">
            <mxPoint x="27" as="offset" />
          </mxGeometry>
        </mxCell>
        <mxCell id="BCOhU2G1JXM69rmLW3HZ-76" value="" style="edgeStyle=orthogonalEdgeStyle;rounded=0;hachureGap=4;orthogonalLoop=1;jettySize=auto;html=1;fontFamily=Architects Daughter;fontSource=https%3A%2F%2Ffonts.googleapis.com%2Fcss%3Ffamily%3DArchitects%2BDaughter;endArrow=classic;endFill=1;exitX=0.088;exitY=0.784;exitDx=0;exitDy=0;exitPerimeter=0;" edge="1" parent="1" source="BCOhU2G1JXM69rmLW3HZ-101">
          <mxGeometry relative="1" as="geometry">
            <mxPoint x="720" y="820" as="sourcePoint" />
            <mxPoint x="540" y="840" as="targetPoint" />
            <Array as="points">
              <mxPoint x="730" y="821" />
              <mxPoint x="540" y="821" />
            </Array>
          </mxGeometry>
        </mxCell>
        <mxCell id="BCOhU2G1JXM69rmLW3HZ-77" value="muestra posibles candidatos" style="edgeLabel;html=1;align=center;verticalAlign=middle;resizable=0;points=[];sketch=1;hachureGap=4;jiggle=2;curveFitting=1;fontFamily=Architects Daughter;fontSource=https%3A%2F%2Ffonts.googleapis.com%2Fcss%3Ffamily%3DArchitects%2BDaughter;fontSize=8;" vertex="1" connectable="0" parent="BCOhU2G1JXM69rmLW3HZ-76">
          <mxGeometry x="0.1622" y="-1" relative="1" as="geometry">
            <mxPoint x="-4" as="offset" />
          </mxGeometry>
        </mxCell>
        <mxCell id="BCOhU2G1JXM69rmLW3HZ-82" value="" style="edgeStyle=orthogonalEdgeStyle;rounded=0;hachureGap=4;orthogonalLoop=1;jettySize=auto;html=1;fontFamily=Architects Daughter;fontSource=https%3A%2F%2Ffonts.googleapis.com%2Fcss%3Ffamily%3DArchitects%2BDaughter;endArrow=classic;endFill=1;entryX=0.213;entryY=0.913;entryDx=0;entryDy=0;entryPerimeter=0;" edge="1" parent="1" target="BCOhU2G1JXM69rmLW3HZ-101">
          <mxGeometry relative="1" as="geometry">
            <mxPoint x="530" y="902" as="sourcePoint" />
            <mxPoint x="730" y="920" as="targetPoint" />
            <Array as="points">
              <mxPoint x="530" y="920" />
              <mxPoint x="772" y="920" />
            </Array>
          </mxGeometry>
        </mxCell>
        <mxCell id="BCOhU2G1JXM69rmLW3HZ-83" value="pÃºblicacion de ofertas de empleo" style="edgeLabel;html=1;align=left;verticalAlign=middle;resizable=0;points=[];sketch=1;hachureGap=4;jiggle=2;curveFitting=1;fontFamily=Architects Daughter;fontSource=https%3A%2F%2Ffonts.googleapis.com%2Fcss%3Ffamily%3DArchitects%2BDaughter;fontSize=8;" vertex="1" connectable="0" parent="BCOhU2G1JXM69rmLW3HZ-82">
          <mxGeometry x="0.1622" y="-1" relative="1" as="geometry">
            <mxPoint x="-123" y="-1" as="offset" />
          </mxGeometry>
        </mxCell>
        <mxCell id="BCOhU2G1JXM69rmLW3HZ-90" value="" style="edgeStyle=orthogonalEdgeStyle;rounded=0;hachureGap=4;orthogonalLoop=1;jettySize=auto;html=1;fontFamily=Architects Daughter;fontSource=https%3A%2F%2Ffonts.googleapis.com%2Fcss%3Ffamily%3DArchitects%2BDaughter;endArrow=classic;endFill=1;entryX=0;entryY=0.333;entryDx=0;entryDy=0;entryPerimeter=0;exitX=0.478;exitY=0;exitDx=0;exitDy=0;exitPerimeter=0;" edge="1" parent="1" source="BCOhU2G1JXM69rmLW3HZ-101">
          <mxGeometry relative="1" as="geometry">
            <mxPoint x="860" y="400" as="sourcePoint" />
            <mxPoint x="1090" y="330" as="targetPoint" />
            <Array as="points">
              <mxPoint x="860" y="420" />
              <mxPoint x="860" y="330" />
            </Array>
          </mxGeometry>
        </mxCell>
        <mxCell id="BCOhU2G1JXM69rmLW3HZ-94" value="comparticion de publicaciones/perfiles" style="edgeLabel;html=1;align=left;verticalAlign=middle;resizable=0;points=[];sketch=1;hachureGap=4;jiggle=2;curveFitting=1;fontFamily=Architects Daughter;fontSource=https%3A%2F%2Ffonts.googleapis.com%2Fcss%3Ffamily%3DArchitects%2BDaughter;fontSize=8;" vertex="1" connectable="0" parent="BCOhU2G1JXM69rmLW3HZ-90">
          <mxGeometry x="0.0424" y="-1" relative="1" as="geometry">
            <mxPoint x="-75" y="-1" as="offset" />
          </mxGeometry>
        </mxCell>
        <mxCell id="BCOhU2G1JXM69rmLW3HZ-97" value="" style="edgeStyle=orthogonalEdgeStyle;rounded=0;hachureGap=4;orthogonalLoop=1;jettySize=auto;html=1;fontFamily=Architects Daughter;fontSource=https%3A%2F%2Ffonts.googleapis.com%2Fcss%3Ffamily%3DArchitects%2BDaughter;endArrow=classic;endFill=1;" edge="1" parent="1">
          <mxGeometry relative="1" as="geometry">
            <mxPoint x="1180" y="360" as="sourcePoint" />
            <mxPoint x="919.8808848170145" y="429.9999999999998" as="targetPoint" />
            <Array as="points">
              <mxPoint x="1180" y="360" />
              <mxPoint x="1180" y="430" />
            </Array>
          </mxGeometry>
        </mxCell>
        <mxCell id="BCOhU2G1JXM69rmLW3HZ-98" value="importacion de datos para permitir el registro" style="edgeLabel;html=1;align=left;verticalAlign=middle;resizable=0;points=[];sketch=1;hachureGap=4;jiggle=2;curveFitting=1;fontFamily=Architects Daughter;fontSource=https%3A%2F%2Ffonts.googleapis.com%2Fcss%3Ffamily%3DArchitects%2BDaughter;fontSize=8;" vertex="1" connectable="0" parent="BCOhU2G1JXM69rmLW3HZ-97">
          <mxGeometry x="0.0424" y="-1" relative="1" as="geometry">
            <mxPoint x="-88" y="-1" as="offset" />
          </mxGeometry>
        </mxCell>
        <mxCell id="BCOhU2G1JXM69rmLW3HZ-99" value="" style="edgeStyle=orthogonalEdgeStyle;rounded=0;hachureGap=4;orthogonalLoop=1;jettySize=auto;html=1;fontFamily=Architects Daughter;fontSource=https%3A%2F%2Ffonts.googleapis.com%2Fcss%3Ffamily%3DArchitects%2BDaughter;endArrow=classic;endFill=1;exitX=0.911;exitY=0.978;exitDx=0;exitDy=0;exitPerimeter=0;entryX=0.724;entryY=0.058;entryDx=0;entryDy=0;entryPerimeter=0;" edge="1" parent="1" source="BCOhU2G1JXM69rmLW3HZ-7" target="BCOhU2G1JXM69rmLW3HZ-101">
          <mxGeometry relative="1" as="geometry">
            <mxPoint x="1200" y="380" as="sourcePoint" />
            <mxPoint x="960.6021977856101" y="449.9999999999998" as="targetPoint" />
            <Array as="points">
              <mxPoint x="1199" y="380" />
              <mxPoint x="1200" y="380" />
              <mxPoint x="1200" y="450" />
            </Array>
          </mxGeometry>
        </mxCell>
        <mxCell id="BCOhU2G1JXM69rmLW3HZ-100" value="importacion de datos como portafolios/certificaciones" style="edgeLabel;html=1;align=left;verticalAlign=middle;resizable=0;points=[];sketch=1;hachureGap=4;jiggle=2;curveFitting=1;fontFamily=Architects Daughter;fontSource=https%3A%2F%2Ffonts.googleapis.com%2Fcss%3Ffamily%3DArchitects%2BDaughter;fontSize=8;" vertex="1" connectable="0" parent="BCOhU2G1JXM69rmLW3HZ-99">
          <mxGeometry x="0.0424" y="-1" relative="1" as="geometry">
            <mxPoint x="-139" y="-1" as="offset" />
          </mxGeometry>
        </mxCell>
        <mxCell id="BCOhU2G1JXM69rmLW3HZ-101" value="&lt;h1&gt;&lt;font size=&quot;1&quot; face=&quot;Helvetica&quot; style=&quot;&quot;&gt;&lt;b style=&quot;font-size: 39px;&quot;&gt;SISTEMA DE REDES PROFESIONALES&lt;/b&gt;&lt;/font&gt;&lt;/h1&gt;" style="ellipse;whiteSpace=wrap;html=1;hachureGap=4;fontFamily=Architects Daughter;fontSource=https%3A%2F%2Ffonts.googleapis.com%2Fcss%3Ffamily%3DArchitects%2BDaughter;" vertex="1" parent="1">
          <mxGeometry x="700" y="420" width="340" height="510" as="geometry" />
        </mxCell>
        <mxCell id="BCOhU2G1JXM69rmLW3HZ-106" value="" style="edgeStyle=orthogonalEdgeStyle;rounded=0;hachureGap=4;orthogonalLoop=1;jettySize=auto;html=1;fontFamily=Architects Daughter;fontSource=https%3A%2F%2Ffonts.googleapis.com%2Fcss%3Ffamily%3DArchitects%2BDaughter;endArrow=classic;endFill=1;entryX=0.471;entryY=0.022;entryDx=0;entryDy=0;entryPerimeter=0;exitX=0.886;exitY=0.175;exitDx=0;exitDy=0;exitPerimeter=0;" edge="1" parent="1" source="BCOhU2G1JXM69rmLW3HZ-101" target="BCOhU2G1JXM69rmLW3HZ-8">
          <mxGeometry relative="1" as="geometry">
            <mxPoint x="1015" y="510" as="sourcePoint" />
            <mxPoint x="1275" y="440" as="targetPoint" />
            <Array as="points">
              <mxPoint x="1222" y="509" />
              <mxPoint x="1222" y="531" />
            </Array>
          </mxGeometry>
        </mxCell>
        <mxCell id="BCOhU2G1JXM69rmLW3HZ-108" value="&lt;span style=&quot;font-size: 8px;&quot;&gt;conversacion entre usuaruios&lt;/span&gt;" style="edgeLabel;html=1;align=left;verticalAlign=middle;resizable=0;points=[];sketch=1;hachureGap=4;jiggle=2;curveFitting=1;fontFamily=Architects Daughter;fontSource=https%3A%2F%2Ffonts.googleapis.com%2Fcss%3Ffamily%3DArchitects%2BDaughter;" vertex="1" connectable="0" parent="BCOhU2G1JXM69rmLW3HZ-106">
          <mxGeometry x="0.0834" relative="1" as="geometry">
            <mxPoint x="-98" as="offset" />
          </mxGeometry>
        </mxCell>
        <mxCell id="BCOhU2G1JXM69rmLW3HZ-124" value="" style="edgeStyle=orthogonalEdgeStyle;rounded=0;hachureGap=4;orthogonalLoop=1;jettySize=auto;html=1;fontFamily=Architects Daughter;fontSource=https%3A%2F%2Ffonts.googleapis.com%2Fcss%3Ffamily%3DArchitects%2BDaughter;exitX=0.074;exitY=1.016;exitDx=0;exitDy=0;exitPerimeter=0;" edge="1" parent="1" source="BCOhU2G1JXM69rmLW3HZ-5" target="BCOhU2G1JXM69rmLW3HZ-101">
          <mxGeometry relative="1" as="geometry">
            <mxPoint x="450" y="700" as="sourcePoint" />
            <mxPoint x="620" y="735" as="targetPoint" />
            <Array as="points">
              <mxPoint x="449" y="735" />
            </Array>
          </mxGeometry>
        </mxCell>
        <mxCell id="BCOhU2G1JXM69rmLW3HZ-125" value="enviar mensaje" style="edgeLabel;html=1;align=left;verticalAlign=middle;resizable=0;points=[];sketch=1;hachureGap=4;jiggle=2;curveFitting=1;fontFamily=Architects Daughter;fontSource=https%3A%2F%2Ffonts.googleapis.com%2Fcss%3Ffamily%3DArchitects%2BDaughter;fontSize=8;" vertex="1" connectable="0" parent="BCOhU2G1JXM69rmLW3HZ-124">
          <mxGeometry x="0.1622" y="-1" relative="1" as="geometry">
            <mxPoint x="-74" as="offset" />
          </mxGeometry>
        </mxCell>
        <mxCell id="BCOhU2G1JXM69rmLW3HZ-126" value="" style="edgeStyle=orthogonalEdgeStyle;rounded=0;hachureGap=4;orthogonalLoop=1;jettySize=auto;html=1;fontFamily=Architects Daughter;fontSource=https%3A%2F%2Ffonts.googleapis.com%2Fcss%3Ffamily%3DArchitects%2BDaughter;endArrow=classic;endFill=1;entryX=0.642;entryY=0.037;entryDx=0;entryDy=0;entryPerimeter=0;exitX=0.853;exitY=0.137;exitDx=0;exitDy=0;exitPerimeter=0;" edge="1" parent="1" source="BCOhU2G1JXM69rmLW3HZ-101" target="BCOhU2G1JXM69rmLW3HZ-8">
          <mxGeometry relative="1" as="geometry">
            <mxPoint x="1035" y="490" as="sourcePoint" />
            <mxPoint x="1242" y="511" as="targetPoint" />
            <Array as="points">
              <mxPoint x="1242" y="490" />
            </Array>
          </mxGeometry>
        </mxCell>
        <mxCell id="BCOhU2G1JXM69rmLW3HZ-127" value="&lt;span style=&quot;font-size: 8px;&quot;&gt;redireccion de mensajes&lt;/span&gt;" style="edgeLabel;html=1;align=left;verticalAlign=middle;resizable=0;points=[];sketch=1;hachureGap=4;jiggle=2;curveFitting=1;fontFamily=Architects Daughter;fontSource=https%3A%2F%2Ffonts.googleapis.com%2Fcss%3Ffamily%3DArchitects%2BDaughter;" vertex="1" connectable="0" parent="BCOhU2G1JXM69rmLW3HZ-126">
          <mxGeometry x="0.0834" relative="1" as="geometry">
            <mxPoint x="-98" as="offset" />
          </mxGeometry>
        </mxCell>
        <mxCell id="BCOhU2G1JXM69rmLW3HZ-128" value="" style="edgeStyle=orthogonalEdgeStyle;rounded=0;hachureGap=4;orthogonalLoop=1;jettySize=auto;html=1;fontFamily=Architects Daughter;fontSource=https%3A%2F%2Ffonts.googleapis.com%2Fcss%3Ffamily%3DArchitects%2BDaughter;endArrow=classic;endFill=1;exitX=0.668;exitY=0.956;exitDx=0;exitDy=0;exitPerimeter=0;entryX=0.989;entryY=0.394;entryDx=0;entryDy=0;entryPerimeter=0;" edge="1" parent="1" source="BCOhU2G1JXM69rmLW3HZ-8" target="BCOhU2G1JXM69rmLW3HZ-101">
          <mxGeometry relative="1" as="geometry">
            <mxPoint x="1245" y="592" as="sourcePoint" />
            <mxPoint x="1045" y="620" as="targetPoint" />
            <Array as="points">
              <mxPoint x="1245" y="621" />
            </Array>
          </mxGeometry>
        </mxCell>
        <mxCell id="BCOhU2G1JXM69rmLW3HZ-129" value="&lt;div&gt;&lt;br&gt;&lt;/div&gt;" style="edgeLabel;html=1;align=center;verticalAlign=middle;resizable=0;points=[];sketch=1;hachureGap=4;jiggle=2;curveFitting=1;fontFamily=Architects Daughter;fontSource=https%3A%2F%2Ffonts.googleapis.com%2Fcss%3Ffamily%3DArchitects%2BDaughter;" vertex="1" connectable="0" parent="BCOhU2G1JXM69rmLW3HZ-128">
          <mxGeometry x="0.0898" relative="1" as="geometry">
            <mxPoint x="4" as="offset" />
          </mxGeometry>
        </mxCell>
        <mxCell id="BCOhU2G1JXM69rmLW3HZ-130" value="notifica de los mensajes recibidos" style="edgeLabel;html=1;align=center;verticalAlign=middle;resizable=0;points=[];sketch=1;hachureGap=4;jiggle=2;curveFitting=1;fontFamily=Architects Daughter;fontSource=https%3A%2F%2Ffonts.googleapis.com%2Fcss%3Ffamily%3DArchitects%2BDaughter;fontSize=8;" vertex="1" connectable="0" parent="BCOhU2G1JXM69rmLW3HZ-128">
          <mxGeometry x="0.1554" y="-1" relative="1" as="geometry">
            <mxPoint as="offset" />
          </mxGeometry>
        </mxCell>
        <mxCell id="BCOhU2G1JXM69rmLW3HZ-133" value="" style="edgeStyle=orthogonalEdgeStyle;rounded=0;hachureGap=4;orthogonalLoop=1;jettySize=auto;html=1;fontFamily=Architects Daughter;fontSource=https%3A%2F%2Ffonts.googleapis.com%2Fcss%3Ffamily%3DArchitects%2BDaughter;endArrow=classic;endFill=1;exitX=1.003;exitY=0.533;exitDx=0;exitDy=0;exitPerimeter=0;" edge="1" parent="1" source="BCOhU2G1JXM69rmLW3HZ-101">
          <mxGeometry relative="1" as="geometry">
            <mxPoint x="1050" y="730" as="sourcePoint" />
            <mxPoint x="1280" y="760" as="targetPoint" />
            <Array as="points">
              <mxPoint x="1041" y="690" />
              <mxPoint x="1280" y="690" />
            </Array>
          </mxGeometry>
        </mxCell>
        <mxCell id="BCOhU2G1JXM69rmLW3HZ-134" value="&lt;div&gt;&lt;br&gt;&lt;/div&gt;" style="edgeLabel;html=1;align=center;verticalAlign=middle;resizable=0;points=[];sketch=1;hachureGap=4;jiggle=2;curveFitting=1;fontFamily=Architects Daughter;fontSource=https%3A%2F%2Ffonts.googleapis.com%2Fcss%3Ffamily%3DArchitects%2BDaughter;" vertex="1" connectable="0" parent="BCOhU2G1JXM69rmLW3HZ-133">
          <mxGeometry x="0.0898" relative="1" as="geometry">
            <mxPoint x="4" as="offset" />
          </mxGeometry>
        </mxCell>
        <mxCell id="BCOhU2G1JXM69rmLW3HZ-135" value="&lt;span style=&quot;font-size: 8px;&quot;&gt;envia los filtros aplicados para la busqueda&lt;/span&gt;" style="edgeLabel;html=1;align=center;verticalAlign=middle;resizable=0;points=[];sketch=1;hachureGap=4;jiggle=2;curveFitting=1;fontFamily=Architects Daughter;fontSource=https%3A%2F%2Ffonts.googleapis.com%2Fcss%3Ffamily%3DArchitects%2BDaughter;" vertex="1" connectable="0" parent="BCOhU2G1JXM69rmLW3HZ-133">
          <mxGeometry x="0.0105" relative="1" as="geometry">
            <mxPoint x="-22" as="offset" />
          </mxGeometry>
        </mxCell>
        <mxCell id="BCOhU2G1JXM69rmLW3HZ-136" value="" style="edgeStyle=orthogonalEdgeStyle;rounded=0;hachureGap=4;orthogonalLoop=1;jettySize=auto;html=1;fontFamily=Architects Daughter;fontSource=https%3A%2F%2Ffonts.googleapis.com%2Fcss%3Ffamily%3DArchitects%2BDaughter;endArrow=classic;endFill=1;entryX=0.963;entryY=0.676;entryDx=0;entryDy=0;entryPerimeter=0;" edge="1" parent="1" target="BCOhU2G1JXM69rmLW3HZ-101">
          <mxGeometry relative="1" as="geometry">
            <mxPoint x="1170" y="799.74" as="sourcePoint" />
            <mxPoint x="1040" y="800" as="targetPoint" />
            <Array as="points" />
          </mxGeometry>
        </mxCell>
        <mxCell id="BCOhU2G1JXM69rmLW3HZ-137" value="&lt;div&gt;&lt;br&gt;&lt;/div&gt;" style="edgeLabel;html=1;align=center;verticalAlign=middle;resizable=0;points=[];sketch=1;hachureGap=4;jiggle=2;curveFitting=1;fontFamily=Architects Daughter;fontSource=https%3A%2F%2Ffonts.googleapis.com%2Fcss%3Ffamily%3DArchitects%2BDaughter;" vertex="1" connectable="0" parent="BCOhU2G1JXM69rmLW3HZ-136">
          <mxGeometry x="0.0898" relative="1" as="geometry">
            <mxPoint x="4" as="offset" />
          </mxGeometry>
        </mxCell>
        <mxCell id="BCOhU2G1JXM69rmLW3HZ-138" value="muestra los resultados&lt;div&gt;segun los filtros&lt;/div&gt;" style="edgeLabel;html=1;align=center;verticalAlign=middle;resizable=0;points=[];sketch=1;hachureGap=4;jiggle=2;curveFitting=1;fontFamily=Architects Daughter;fontSource=https%3A%2F%2Ffonts.googleapis.com%2Fcss%3Ffamily%3DArchitects%2BDaughter;fontSize=8;" vertex="1" connectable="0" parent="BCOhU2G1JXM69rmLW3HZ-136">
          <mxGeometry x="0.0137" y="-1" relative="1" as="geometry">
            <mxPoint as="offset" />
          </mxGeometry>
        </mxCell>
        <mxCell id="BCOhU2G1JXM69rmLW3HZ-139" value="" style="edgeStyle=orthogonalEdgeStyle;rounded=0;hachureGap=4;orthogonalLoop=1;jettySize=auto;html=1;fontFamily=Architects Daughter;fontSource=https://fonts.googleapis.com/css?family=Architects+Daughter;endArrow=classic;endFill=1;exitX=0.161;exitY=0.987;exitDx=0;exitDy=0;exitPerimeter=0;" edge="1" parent="1" source="BCOhU2G1JXM69rmLW3HZ-6" target="BCOhU2G1JXM69rmLW3HZ-101">
          <mxGeometry relative="1" as="geometry">
            <mxPoint x="520" y="910" as="sourcePoint" />
            <mxPoint x="720" y="948" as="targetPoint" />
            <Array as="points">
              <mxPoint x="519" y="948" />
              <mxPoint x="870" y="948" />
            </Array>
          </mxGeometry>
        </mxCell>
        <mxCell id="BCOhU2G1JXM69rmLW3HZ-140" value="revisan y gestionan las postulaciones de usuarios" style="edgeLabel;html=1;align=left;verticalAlign=middle;resizable=0;points=[];sketch=1;hachureGap=4;jiggle=2;curveFitting=1;fontFamily=Architects Daughter;fontSource=https://fonts.googleapis.com/css?family=Architects+Daughter;fontSize=8;" vertex="1" connectable="0" parent="BCOhU2G1JXM69rmLW3HZ-139">
          <mxGeometry x="0.1622" y="-1" relative="1" as="geometry">
            <mxPoint x="-163" y="1" as="offset" />
          </mxGeometry>
        </mxCell>
      </root>
    </mxGraphModel>
  </diagram>
</mxfile>
